HIERARCHY
ROOT Hips
{
	OFFSET 0.00000 0.00000 0.00000
	CHANNELS 6 Xposition Yposition Zposition Zrotation Yrotation Xrotation 
	JOINT LHipJoint
	{
		OFFSET 0 0 0
		CHANNELS 3 Zrotation Yrotation Xrotation
		JOINT LeftUpLeg
		{
			OFFSET 1.30186 -1.90722 0.65024
			CHANNELS 3 Zrotation Yrotation Xrotation
			JOINT LeftLeg
			{
				OFFSET 2.56413 -7.04489 0.00000
				CHANNELS 3 Zrotation Yrotation Xrotation
				JOINT LeftFoot
				{
					OFFSET 2.79321 -7.67428 0.00000
					CHANNELS 3 Zrotation Yrotation Xrotation
					JOINT LeftToeBase
					{
						OFFSET 0.15723 -0.43198 2.08537
						CHANNELS 3 Zrotation Yrotation Xrotation
						End Site
						{
							OFFSET 0.00000 -0.00000 1.07411
						}
					}
				}
			}
		}
	}
	JOINT RHipJoint
	{
		OFFSET 0 0 0
		CHANNELS 3 Zrotation Yrotation Xrotation
		JOINT RightUpLeg
		{
			OFFSET -1.28627 -1.90723 0.65024
			CHANNELS 3 Zrotation Yrotation Xrotation
			JOINT RightLeg
			{
				OFFSET -2.56567 -7.04913 0.00000
				CHANNELS 3 Zrotation Yrotation Xrotation
				JOINT RightFoot
				{
					OFFSET -2.75597 -7.57198 0.00000
					CHANNELS 3 Zrotation Yrotation Xrotation
					JOINT RightToeBase
					{
						OFFSET -0.17500 -0.48081 2.22901
						CHANNELS 3 Zrotation Yrotation Xrotation
						End Site
						{
							OFFSET -0.00000 -0.00000 1.14762
						}
					}
				}
			}
		}
	}
	JOINT LowerBack
	{
		OFFSET 0 0 0
		CHANNELS 3 Zrotation Yrotation Xrotation
		JOINT Spine
		{
			OFFSET -0.04522 2.07467 -0.16566
			CHANNELS 3 Zrotation Yrotation Xrotation
			JOINT Spine1
			{
				OFFSET -0.01178 2.08825 -0.05393
				CHANNELS 3 Zrotation Yrotation Xrotation
				JOINT Neck
				{
					OFFSET 0 0 0
					CHANNELS 3 Zrotation Yrotation Xrotation
					JOINT Neck1
					{
						OFFSET -0.05182 1.80489 0.16014
						CHANNELS 3 Zrotation Yrotation Xrotation
						JOINT Head
						{
							OFFSET 0.14739 1.78840 -0.33342
							CHANNELS 3 Zrotation Yrotation Xrotation
							End Site
							{
								OFFSET 0.04364 1.83899 -0.13460
							}
						}
					}
				}
				JOINT LeftShoulder
				{
					OFFSET 0 0 0
					CHANNELS 3 Zrotation Yrotation Xrotation
					JOINT LeftArm
					{
						OFFSET 3.01264 1.29090 -0.06579
						CHANNELS 3 Zrotation Yrotation Xrotation
						JOINT LeftForeArm
						{
							OFFSET 5.55680 -0.00000 0.00000
							CHANNELS 3 Zrotation Yrotation Xrotation
							JOINT LeftHand
							{
								OFFSET 3.63979 -0.00000 -0.00000
								CHANNELS 3 Zrotation Yrotation Xrotation
								JOINT LeftFingerBase
								{
									OFFSET 0 0 0
									CHANNELS 3 Zrotation Yrotation Xrotation
									JOINT LeftHandIndex1
									{
										OFFSET 0.56942 -0.00000 -0.00000
										CHANNELS 3 Zrotation Yrotation Xrotation
										End Site
										{
											OFFSET 0.45908 -0.00000 -0.00000
										}
									}
								}
								JOINT LThumb
								{
									OFFSET 0 0 0
									CHANNELS 3 Zrotation Yrotation Xrotation
									End Site
									{
										OFFSET 0.46609 -0.00000 0.46609
									}
								}
							}
						}
					}
				}
				JOINT RightShoulder
				{
					OFFSET 0 0 0
					CHANNELS 3 Zrotation Yrotation Xrotation
					JOINT RightArm
					{
						OFFSET -3.15796 1.37283 -0.36748
						CHANNELS 3 Zrotation Yrotation Xrotation
						JOINT RightForeArm
						{
							OFFSET -5.34339 -0.00000 0.00000
							CHANNELS 3 Zrotation Yrotation Xrotation
							JOINT RightHand
							{
								OFFSET -3.65101 -0.00000 -0.00000
								CHANNELS 3 Zrotation Yrotation Xrotation
								JOINT RightFingerBase
								{
									OFFSET 0 0 0
									CHANNELS 3 Zrotation Yrotation Xrotation
									JOINT RightHandIndex1
									{
										OFFSET -0.69425 -0.00000 -0.00000
										CHANNELS 3 Zrotation Yrotation Xrotation
										End Site
										{
											OFFSET -0.55972 -0.00000 -0.00000
										}
									}
								}
								JOINT RThumb
								{
									OFFSET 0 0 0
									CHANNELS 3 Zrotation Yrotation Xrotation
									End Site
									{
										OFFSET -0.56827 -0.00000 0.56827
									}
								}
							}
						}
					}
				}
			}
		}
	}
}
MOTION
Frames: 8
Frame Time: 0.0769231
0.00 0.00 0.00 0 0 0 0 0 0 -21 0 0 0 0 0 0 0 0 0 0 0 0 0 0 21 0 0 0 0 0 0 0 0 0 0 0 0 0 0 0 0 0 0 0 0 0 0 -16 0 0 21 0 0 11 0 0 0 -8 0 0 0 0 0 0 0 0 0 0 0 0 0 0 0 0 0 0 0 0 8 0 0 0 0 0 0 0 0 0 0 0 0 0 0 0 0 0
0.00 0.00 0.00 -175.4420 1.2741 -173.5740 0.0000 0.0000 0.0000 -11.8974 -8.1311 -29.9590 4.3453 12.6063 37.9119 0.5719 3.7711 -16.1570 0.6965 -5.3349 -14.8663 0.0000 0.0000 0.0000 28.2441 8.3223 -1.0756 -1.7028 -8.2174 23.3765 -0.5979 1.8994 -14.0791 -0.0008 -0.1769 0.4860 3.4012 1.8585 3.3149 1.4869 2.7012 2.2733 -0.4505 1.4364 0.5596 -3.7462 -4.8867 -13.0410 1.8452 -6.4893 15.6852 0.5481 -3.2583 7.1338 0.0000 -0.0000 0.0000 -90.0266 10.5324 -2.9655 8.7715 -14.7956 -1.1411 -0.0000 -0.0000 14.7732 20.6853 12.7316 4.7567 -7.1250 0.0000 -0.0000 -6.0319 43.4757 0.2278 0.0000 -0.0000 0.0000 82.9753 -3.8840 6.0385 -16.2151 25.8114 -3.7391 0.0000 0.0000 4.0242 -26.0899 31.9363 -14.5220 7.1250 -0.0000 -0.0000 3.1855 4.7346 3.4427
0.00 0.00 0.00 -174.6570 3.2114 -172.9260 0.0000 0.0000 0.0000 -9.4771 -12.6233 -28.1586 1.5683 7.9022 22.4175 0.1868 8.5620 -15.2663 0.6836 -5.2864 -14.7271 0.0000 0.0000 0.0000 27.9477 5.1018 4.1250 -0.9703 -6.2712 17.5735 -0.3166 4.3634 -10.0249 -0.0202 0.9180 -2.5232 3.7308 2.3546 2.8710 1.3379 3.3446 2.4603 -0.7717 1.7724 1.0495 -4.2857 -4.8933 -14.1723 2.5393 -6.4834 16.3700 0.8233 -3.2090 7.5980 -0.0000 0.0000 0.0000 -90.5546 12.6116 -5.8541 8.7929 -14.8298 -1.1465 -0.0000 -0.0000 13.8626 20.9486 15.2467 5.7490 -7.1250 0.0000 -0.0000 -6.2960 46.1538 -0.1800 -0.0000 0.0000 0.0000 81.0233 -2.1673 5.7349 -17.6071 27.6511 -4.3654 0.0000 -0.0000 -0.3884 -24.2299 31.5091 -13.2359 7.1250 -0.0000 -0.0000 4.1607 3.8510 4.4421
0.00 0.00 0.00 -173.9160 5.3369 -173.6700 0.0000 0.0000 0.0000 -11.0355 -13.0371 -28.4830 1.5595 7.8811 22.3535 -0.2531 10.8836 -10.7082 0.1716 -2.6685 -7.3573 0.0000 0.0000 0.0000 25.7143 2.3444 15.4101 -0.9221 -6.1179 17.1270 0.0899 5.4601 3.3479 -0.0578 1.5519 -4.2689 2.2559 2.6243 2.0350 0.8343 3.5975 1.9207 -0.4461 1.8501 0.9139 -5.0771 -5.0080 -12.5099 4.5718 -7.3520 18.6629 1.5267 -3.5997 8.2038 0.0000 0.0000 0.0000 -90.4720 16.1713 -9.2609 8.9374 -15.0605 -1.1838 -0.0000 -0.0000 14.6945 17.8794 13.5553 4.3240 -7.1250 0.0000 -0.0000 -8.7337 44.0206 0.2128 0.0000 0.0000 0.0000 78.5921 -0.3677 -3.5768 -23.9153 35.0746 -7.6578 0.0000 -0.0000 -11.7942 -29.6374 34.1716 -17.7218 7.1250 -0.0000 -0.0000 1.6649 7.9979 1.8811
0.00 0.00 0.00 -176.4600 4.4717 -175.0510 0.0000 0.0000 0.0000 -15.9462 -11.6852 -26.5061 2.2686 9.4045 27.0689 -0.0671 7.0937 -8.3429 0.0620 -1.6061 -4.4184 0.0000 0.0000 0.0000 21.8599 2.6154 9.3625 -2.9994 -10.6940 31.2549 -0.7742 1.6916 17.3157 -0.1947 -2.8418 7.8387 -0.6896 2.3718 1.9007 -0.0280 3.2189 2.0876 0.3258 1.6275 1.0382 -5.4503 -5.3000 -11.4167 5.5952 -8.1682 19.3654 1.8487 -3.9888 8.3442 -0.0000 0.0000 0.0000 -89.4706 13.4728 -11.7540 8.2517 -13.9601 -1.0120 -0.0000 -0.0000 18.0621 19.8248 15.6364 5.5500 -7.1250 0.0000 -0.0000 -7.4316 46.4131 -0.2606 -0.0000 0.0000 0.0000 79.5319 0.4567 -9.0582 -26.1405 37.3471 -8.9727 0.0000 -0.0000 -17.6759 -32.5963 33.1757 -19.2852 7.1250 -0.0000 -0.0000 -0.1632 7.8319 -0.1839
0.00 0.00 0.00 -179.0300 4.1193 -175.7290 0.0000 0.0000 0.0000 -20.8286 -9.6883 -22.9934 2.4901 9.8198 28.3953 0.1891 3.8469 -10.5531 0.1832 -2.7571 -7.6033 0.0000 0.0000 0.0000 18.1598 6.0904 0.7179 -6.4736 -14.8721 46.8542 -2.7525 -3.9284 30.4845 -0.0809 -1.8345 5.0485 -3.2286 2.2472 1.9900 -0.7306 3.0233 1.7721 1.0105 1.5134 0.5779 -5.9909 -5.4210 -11.3136 5.9035 -8.7472 21.5331 1.9487 -4.3489 9.1371 -0.0000 -0.0000 0.0000 -88.6953 11.3043 -6.4991 9.1069 -15.3306 -1.2282 -0.0000 -0.0000 14.1756 20.0735 16.7156 5.9999 -7.1250 0.0000 -0.0000 -7.4646 47.5701 -0.4759 -0.0000 -0.0000 0.0000 79.9347 1.9575 -13.5133 -28.1055 39.2132 -10.1903 0.0000 -0.0000 -22.4973 -37.3852 32.3310 -22.2285 7.1250 -0.0000 -0.0000 -2.9690 8.5138 -3.3801
0.00 0.00 0.00 -181.3900 2.0380 -176.8130 0.0000 0.0000 0.0000 -25.3379 -8.1852 -17.2650 2.2309 9.3313 26.8374 0.3539 1.5863 -11.9291 0.1109 -2.1467 -5.9113 0.0000 0.0000 0.0000 14.9337 6.4074 -7.5134 -9.9269 -17.3686 59.2438 -0.9482 -1.9068 17.8595 -0.0055 -0.4781 1.3137 -5.6093 1.4736 2.8448 -0.8846 1.9080 1.4952 2.1728 0.9667 -0.2041 -6.3896 -5.2559 -10.2040 5.9785 -8.9225 22.8547 2.0314 -4.5736 9.4206 0.0000 -0.0000 0.0000 -88.2202 9.4500 3.3429 11.3461 -18.8168 -1.8860 -0.0000 -0.0000 6.7446 18.6486 17.1523 5.6838 -7.1250 0.0000 -0.0000 -8.9257 47.8198 -0.6257 0.0000 -0.0000 0.0000 79.0793 4.3684 -16.2374 -29.2506 40.2424 -10.9223 0.0000 -0.0000 -25.5066 -42.4752 33.4524 -26.7793 7.1250 -0.0000 -0.0000 -5.3807 11.7106 -6.3860
0.00 0.00 0.00 -182.2590 -1.5950 -176.7280 0.0000 0.0000 0.0000 -27.8216 -7.5066 -12.2926 2.1088 9.0891 26.0745 0.5629 -1.3263 -13.7783 0.1863 -2.7801 -7.6671 0.0000 0.0000 0.0000 13.3494 6.7355 -16.3367 -11.5230 -18.1816 64.4686 0.0128 -2.7444 0.9948 -0.0011 0.2095 -0.5757 -6.0777 0.4833 2.1591 -0.5171 0.4747 1.4814 2.8650 0.1686 0.2679 -6.3928 -5.5561 -10.1163 5.7552 -9.7103 24.3773 1.8350 -5.0390 9.9879 0.0000 -0.0000 0.0000 -87.4197 5.8788 13.6924 15.1961 -24.4185 -3.3066 -0.0000 0.0000 -1.6111 19.6232 16.0570 5.6321 -7.1250 0.0000 -0.0000 -7.7220 46.8235 -0.3495 0.0000 -0.0000 0.0000 78.4738 7.6022 -19.0662 -30.8149 41.5817 -11.9468 0.0000 -0.0000 -27.5566 -47.9664 34.2570 -31.9820 7.1250 -0.0000 -0.0000 -7.9732 15.1271 -9.8589
